# xmcd CD database file
#
# Track frame offsets:
#	150
#	11514
#	22915
#	36188
#	46274
#	64247
#	77024
#	88384
#	103701
#	134149
#	151662
#	169388
#	190206
#	205444
#	222940
#	235092
#	244922
#	260355
#	273191
#	293862
#
# Disc length: 4081 seconds
#
# Revision: 0
# Processed by: cddbd v1.5PL3 Copyright (c) Steve Scherf et al.
# Submitted via: CDex 1.50
#
DISCID=200fef14
DTITLE=John Mayall's Bluesbreakers featuring Eric Clapton - Bluesbreaking!
DYEAR=2004
DGENRE=Blues
TTITLE0=Walking up a Hill
TTITLE1=Crocodile Walk
TTITLE2=Bye Bye Bird
TTITLE3=I'm Your Witchdoctor
TTITLE4=Telephone Blues
TTITLE5=On Top of the World
TTITLE6=Maudie
TTITLE7=It Hurts to Be In Love
TTITLE8=Have You Ever Loved a Woman
TTITLE9=Bye Bye Bird
TTITLE10=Hoochie Coochie Man
TTITLE11=Stormy Monday
TTITLE12=Lonely Years
TTITLE13=Bernard Jenkins
TTITLE14=On Top of the World
TTITLE15=Key to Love
TTITLE16=Hideaway (unreleased)
TTITLE17=Little Girl (unreleased)
TTITLE18=Tears In My Eyes
TTITLE19=Parchman Farm
EXTD=YEAR: 2004
EXTT0=
EXTT1=
EXTT2=
EXTT3=
EXTT4=
EXTT5=
EXTT6=
EXTT7=
EXTT8=
EXTT9=
EXTT10=
EXTT11=
EXTT12=
EXTT13=
EXTT14=
EXTT15=
EXTT16=
EXTT17=
EXTT18=
EXTT19=
PLAYORDER=
